Coordinates
version=1
nRows=4
nColumns=63
inDegrees=yes

Units are S.I. units (second, meters, Newtons, ...)
If the header above contains a line with 'inDegrees', this indicates whether rotational values are in degrees (yes) or radians (no).

endheader
time	pelvis_tilt	pelvis_list	pelvis_rotation	pelvis_tx	pelvis_ty	pelvis_tz	hip_flexion_r	hip_adduction_r	hip_rotation_r	knee_angle_r	knee_angle_r_beta	ankle_angle_r	subtalar_angle_r	mtp_angle_r	hip_flexion_l	hip_adduction_l	hip_rotation_l	knee_angle_l	knee_angle_l_beta	ankle_angle_l	subtalar_angle_l	mtp_angle_l	L5_S1_Flex_Ext	L5_S1_Lat_Bending	L5_S1_axial_rotation	L4_L5_Flex_Ext	L4_L5_Lat_Bending	L4_L5_axial_rotation	L3_L4_Flex_Ext	L3_L4_Lat_Bending	L3_L4_axial_rotation	L2_L3_Flex_Ext	L2_L3_Lat_Bending	L2_L3_axial_rotation	L1_L2_Flex_Ext	L1_L2_Lat_Bending	L1_L2_axial_rotation	L1_T12_Flex_Ext	L1_T12_Lat_Bending	L1_T12_axial_rotation	Abs_r3	Abs_r2	Abs_r1	Abs_t1	Abs_t2	neck_flexion	neck_bending	neck_rotation	arm_flex_r	arm_add_r	arm_rot_r	elbow_flex_r	pro_sup_r	wrist_flex_r	wrist_dev_r	arm_flex_l	arm_add_l	arm_rot_l	elbow_flex_l	pro_sup_l	wrist_flex_l	wrist_dev_l
      1.50847458	      6.62059315	     -3.35785464	     93.63994236	      0.30659595	      1.04582005	      0.40265774	     -1.36339425	      1.36353629	    -15.24719834	      7.98514664	      0.13936710	     28.23211675	     16.19339790	      0.00000000	      1.63899598	     -1.42183567	     -6.35786504	     12.94144911	      0.22587090	     27.89814441	      8.18603603	      0.00000000	      0.05565614	      0.02428148	      0.28457248	      0.10335902	      0.03229437	      0.30235826	      0.09143748	      0.05903800	      0.30235826	      0.06360941	      0.05903800	      0.24900092	      0.05168229	      0.04951480	      0.23121514	      0.03180192	      0.03761202	      0.21342936	      0.39754627	      0.27467699	      1.58270677	      0.00000000	      0.00000000	     20.43783351	     -3.11052460	    -11.03565840	      4.05630196	    -10.85118337	     43.52767177	     56.53381374	     22.96805397	      2.34651892	     18.07401851	     14.85812018	    -10.18613404	     69.60716453	     54.93723207	     57.04619878	     -8.03004715	      0.86925177
      1.52542373	      6.63745450	     -3.54594117	     93.53429626	      0.30682240	      1.04537859	      0.40270962	     -1.14491619	      1.40664208	    -14.47800123	      7.99642846	      0.13956401	     28.25395669	     15.32924028	      0.00000000	      1.85806392	     -1.37243567	     -5.93178653	     12.97310215	      0.22642335	     27.99887929	      7.44503461	      0.00000000	      0.09800882	      0.02153550	      0.30071784	      0.18201218	      0.02864222	      0.31951270	      0.16101869	      0.05236142	      0.31951270	      0.11201428	      0.05236142	      0.26312811	      0.09101099	      0.04391520	      0.24433324	      0.05600224	      0.03335849	      0.22553838	      0.70006720	      0.24361391	      1.67250240	      0.00000000	      0.00000000	     20.74035090	     -3.39752849	    -10.91621636	      4.05685728	    -10.88971301	     43.78939944	     56.46621221	     24.27444337	      2.42319337	     17.23026873	     14.83021685	    -10.25771535	     69.76885579	     55.06874580	     56.25524846	     -7.72124529	      1.19210788
      1.54237288	      6.70509457	     -3.25104951	     93.87457387	      0.30621873	      1.04568094	      0.40294229	     -1.50628274	      1.46296067	    -15.34138132	      7.96636083	      0.13903923	     28.35109105	     16.08356543	      0.00000000	      1.65126329	     -1.64617394	     -7.31790516	     13.12235914	      0.22902837	     28.29555506	      9.78070198	      0.00000000	      0.06466388	      0.02580304	      0.23120639	      0.12008728	      0.03431804	      0.24565679	      0.10623628	      0.06273751	      0.24565679	      0.07390434	      0.06273751	      0.20230559	      0.06004687	      0.05261756	      0.18785519	      0.03694894	      0.03996891	      0.17340479	      0.46188759	      0.29188913	      1.28590058	      0.00000000	      0.00000000	     20.48387009	     -4.28359096	    -11.58187409	      4.26784428	    -10.87973851	     43.95598567	     56.48764201	     20.58771697	      1.73471750	     18.66666987	     14.93308282	    -10.19844835	     69.68537311	     54.87960633	     57.19511304	     -7.19659786	      1.21820951
      1.55932203	      6.71053890	     -3.22517158	     93.86715455	      0.30615918	      1.04559440	      0.40298102	     -1.54173916	      1.47397953	    -15.18022563	      7.96026520	      0.13893284	     28.38957178	     15.87980221	      0.00000000	      1.64845091	     -1.64716975	     -7.23668276	     13.15021943	      0.22951463	     28.36538173	      9.75603114	      0.00000000	      0.07430088	      0.02223455	      0.23526587	      0.13798416	      0.02957195	      0.24996999	      0.12206891	      0.05406109	      0.24996999	      0.08491847	      0.05406109	      0.20585764	      0.06899579	      0.04534069	      0.19115352	      0.04245552	      0.03444132	      0.17644941	      0.53072372	      0.25152168	      1.30847822	      0.00000000	      0.00000000	     20.56602845	     -4.45167799	    -11.59075931	      4.27792395	    -10.87638662	     44.01251186	     56.44896375	     20.64939633	      1.70817279	     18.59775373	     14.91596754	    -10.18622383	     69.66700584	     54.88713224	     57.10048744	     -7.17602245	      1.22283566
